<?xml version="1.0" encoding="UTF-8"?>
<svg id="Camada_1" data-name="Camada 1" xmlns="http://www.w3.org/2000/svg" xmlns:xlink="http://www.w3.org/1999/xlink" viewBox="0 0 1406.92 1413.53">
  <defs>
    <style>
      .cls-1 {
        fill: url(#Gradiente_sem_nome_2);
      }

      .cls-1, .cls-2, .cls-3, .cls-4, .cls-5, .cls-6, .cls-7, .cls-8, .cls-9, .cls-10, .cls-11, .cls-12 {
        stroke-width: 0px;
      }

      .cls-2 {
        fill: #ffc53c;
      }

      .cls-3 {
        fill: #000;
      }

      .cls-13 {
        fill: url(#Gradiente_sem_nome_9);
        stroke: #000;
      }

      .cls-13, .cls-14 {
        stroke-miterlimit: 10;
      }

      .cls-4 {
        fill: url(#Gradiente_sem_nome_6);
      }

      .cls-5 {
        fill: url(#Gradiente_sem_nome);
      }

      .cls-6 {
        fill: url(#Gradiente_sem_nome_7);
      }

      .cls-7 {
        fill: url(#Gradiente_sem_nome_8);
      }

      .cls-8 {
        fill: #333;
      }

      .cls-14 {
        fill: none;
        stroke: #939393;
        stroke-width: 11.97px;
      }

      .cls-9 {
        fill: url(#Gradiente_sem_nome_4);
      }

      .cls-10 {
        fill: #fff;
      }

      .cls-11 {
        fill: url(#Gradiente_sem_nome_5);
      }

      .cls-12 {
        fill: url(#Gradiente_sem_nome_3);
      }
    </style>
    <linearGradient id="Gradiente_sem_nome" data-name="Gradiente sem nome" x1="73.6" y1="-48.08" x2="355.62" y2="-48.08" gradientTransform="translate(0 1057)" gradientUnits="userSpaceOnUse">
      <stop offset="0" stop-color="#fff"/>
      <stop offset=".09" stop-color="#d7ecd2"/>
      <stop offset=".21" stop-color="#add8a3"/>
      <stop offset=".33" stop-color="#89c67b"/>
      <stop offset=".45" stop-color="#6bb859"/>
      <stop offset=".57" stop-color="#54ad40"/>
      <stop offset=".69" stop-color="#44a52d"/>
      <stop offset=".83" stop-color="#3aa123"/>
      <stop offset=".97" stop-color="#379f1f"/>
    </linearGradient>
    <linearGradient id="Gradiente_sem_nome_2" data-name="Gradiente sem nome 2" x1="313.38" y1="206.52" x2="486.67" y2="206.52" gradientTransform="translate(0 1057)" gradientUnits="userSpaceOnUse">
      <stop offset="0" stop-color="#fff"/>
      <stop offset=".04" stop-color="#ebf6fc"/>
      <stop offset=".15" stop-color="#b5ddf2"/>
      <stop offset=".26" stop-color="#84c7ea"/>
      <stop offset=".37" stop-color="#5cb4e3"/>
      <stop offset=".49" stop-color="#3aa5de"/>
      <stop offset=".61" stop-color="#2199da"/>
      <stop offset=".73" stop-color="#0e91d6"/>
      <stop offset=".86" stop-color="#048cd5"/>
      <stop offset="1" stop-color="#008ad4"/>
    </linearGradient>
    <linearGradient id="Gradiente_sem_nome_3" data-name="Gradiente sem nome 3" x1="495.72" y1="274.69" x2="637.27" y2="274.69" gradientTransform="translate(0 1057)" gradientUnits="userSpaceOnUse">
      <stop offset="0" stop-color="#fff"/>
      <stop offset=".04" stop-color="#fdf9eb"/>
      <stop offset=".15" stop-color="#f9e8b5"/>
      <stop offset=".26" stop-color="#f4d984"/>
      <stop offset=".37" stop-color="#f1cc5c"/>
      <stop offset=".49" stop-color="#eec23a"/>
      <stop offset=".61" stop-color="#ecba21"/>
      <stop offset=".73" stop-color="#eab40e"/>
      <stop offset=".86" stop-color="#e9b104"/>
      <stop offset="1" stop-color="#e9b000"/>
    </linearGradient>
    <linearGradient id="Gradiente_sem_nome_4" data-name="Gradiente sem nome 4" x1="703.17" y1="287.13" x2="815.37" y2="287.13" gradientTransform="translate(0 1057)" gradientUnits="userSpaceOnUse">
      <stop offset="0" stop-color="#fff"/>
      <stop offset=".04" stop-color="#f8f2eb"/>
      <stop offset=".15" stop-color="#e6cfb5"/>
      <stop offset=".26" stop-color="#d6b084"/>
      <stop offset=".37" stop-color="#c9955c"/>
      <stop offset=".49" stop-color="#bd803a"/>
      <stop offset=".61" stop-color="#b56f21"/>
      <stop offset=".73" stop-color="#af630e"/>
      <stop offset=".86" stop-color="#ab5c04"/>
      <stop offset="1" stop-color="#aa5a00"/>
    </linearGradient>
    <linearGradient id="Gradiente_sem_nome_5" data-name="Gradiente sem nome 5" x1="877.35" y1="247.51" x2="987.71" y2="247.51" gradientTransform="translate(0 1057)" gradientUnits="userSpaceOnUse">
      <stop offset="0" stop-color="#fff"/>
      <stop offset=".02" stop-color="#f9f3f5"/>
      <stop offset=".14" stop-color="#ddbbc1"/>
      <stop offset=".25" stop-color="#c48994"/>
      <stop offset=".37" stop-color="#af5f6e"/>
      <stop offset=".49" stop-color="#9d3d4f"/>
      <stop offset=".61" stop-color="#902237"/>
      <stop offset=".74" stop-color="#870f26"/>
      <stop offset=".86" stop-color="#81041b"/>
      <stop offset="1" stop-color="#7f0018"/>
      <stop offset="1" stop-color="#8e2010"/>
      <stop offset="1" stop-color="#9a3909"/>
      <stop offset="1" stop-color="#a34c04"/>
      <stop offset="1" stop-color="#a85601"/>
      <stop offset="1" stop-color="#aa5a00"/>
    </linearGradient>
    <linearGradient id="Gradiente_sem_nome_6" data-name="Gradiente sem nome 6" x1="1029.89" y1="155.73" x2="1145.78" y2="155.73" gradientTransform="translate(0 1057)" gradientUnits="userSpaceOnUse">
      <stop offset="0" stop-color="#fff"/>
      <stop offset=".02" stop-color="#fbf3f6"/>
      <stop offset=".14" stop-color="#e8bbc9"/>
      <stop offset=".25" stop-color="#d889a1"/>
      <stop offset=".37" stop-color="#ca5f80"/>
      <stop offset=".49" stop-color="#be3d64"/>
      <stop offset=".61" stop-color="#b5224f"/>
      <stop offset=".74" stop-color="#af0f40"/>
      <stop offset=".86" stop-color="#ab0437"/>
      <stop offset="1" stop-color="#aa0034"/>
      <stop offset="1" stop-color="#aa2022"/>
      <stop offset="1" stop-color="#aa3913"/>
      <stop offset="1" stop-color="#aa4c08"/>
      <stop offset="1" stop-color="#aa5602"/>
      <stop offset="1" stop-color="#aa5a00"/>
    </linearGradient>
    <linearGradient id="Gradiente_sem_nome_7" data-name="Gradiente sem nome 7" x1="1152.22" y1="22.61" x2="1270.37" y2="22.61" gradientTransform="translate(0 1057)" gradientUnits="userSpaceOnUse">
      <stop offset="0" stop-color="#fff"/>
      <stop offset=".02" stop-color="#fcf3f4"/>
      <stop offset=".14" stop-color="#eebbbe"/>
      <stop offset=".25" stop-color="#e1898e"/>
      <stop offset=".37" stop-color="#d75f65"/>
      <stop offset=".49" stop-color="#ce3d44"/>
      <stop offset=".61" stop-color="#c8222b"/>
      <stop offset=".74" stop-color="#c30f18"/>
      <stop offset=".86" stop-color="#c0040e"/>
      <stop offset="1" stop-color="#bf000a"/>
      <stop offset="1" stop-color="#b82006"/>
      <stop offset="1" stop-color="#b23904"/>
      <stop offset="1" stop-color="#ad4c02"/>
      <stop offset="1" stop-color="#ab5600"/>
      <stop offset="1" stop-color="#aa5a00"/>
    </linearGradient>
    <linearGradient id="Gradiente_sem_nome_8" data-name="Gradiente sem nome 8" x1="1224.98" y1="-135.57" x2="1340.11" y2="-135.57" gradientTransform="translate(0 1057)" gradientUnits="userSpaceOnUse">
      <stop offset="0" stop-color="#fff"/>
      <stop offset="0" stop-color="#fefdfd"/>
      <stop offset=".12" stop-color="#f0c2c5"/>
      <stop offset=".25" stop-color="#e38f93"/>
      <stop offset=".37" stop-color="#d86369"/>
      <stop offset=".5" stop-color="#cf3f47"/>
      <stop offset=".62" stop-color="#c8232c"/>
      <stop offset=".75" stop-color="#c31019"/>
      <stop offset=".87" stop-color="#c0040e"/>
      <stop offset="1" stop-color="#bf000a"/>
      <stop offset="1" stop-color="#bf000a"/>
      <stop offset="1" stop-color="#bf000a"/>
      <stop offset="1" stop-color="#b82006"/>
      <stop offset="1" stop-color="#b23904"/>
      <stop offset="1" stop-color="#ad4c02"/>
      <stop offset="1" stop-color="#ab5600"/>
      <stop offset="1" stop-color="#aa5a00"/>
    </linearGradient>
    <radialGradient id="Gradiente_sem_nome_9" data-name="Gradiente sem nome 9" cx="702.97" cy="-305.98" fx="702.97" fy="-305.98" r="271.47" gradientTransform="translate(0 1057)" gradientUnits="userSpaceOnUse">
      <stop offset=".88" stop-color="#1d1d1b"/>
      <stop offset=".89" stop-color="#1c1c14"/>
      <stop offset=".91" stop-color="#1a1a09"/>
      <stop offset=".93" stop-color="#191802"/>
      <stop offset="1" stop-color="#191800"/>
    </radialGradient>
  </defs>
  <g id="Camada_2-2" data-name="Camada 2">
    <g>
      <g>
        <path class="cls-10" d="M1400.23,612.67c.71,3.95,4.54.14,3.64-2.69-.28-1.16-1.69-2.67-2.87-1.72-.95.86-1.01,2.91-.81,4.19l.04.23Z"/>
        <path class="cls-10" d="M1397.8,675.59c-3.37,7.77-3.91,21.84.12,29.91,2.82,6.31,5.35,3.93,6.85-1.18,1.47-4.72,2.79-12.98,1.82-19.44-.34-3.88-4.47-18.21-8.73-9.43l-.06.14Z"/>
        <path class="cls-10" d="M1380.59,7.64c-8.51-8.29-23.04-7.73-35.41-7.57C907,10.25,468.79,19.42,30.72,30.46c-8.62.71-16.02,2.59-21.13,6.66C3.33,41.97,1,49.04,0,58.32c3.23,171.8,6.76,344.2,13.07,515.92,2.13,13.27,9.65,21.68,23.1,23.39,8.32,1.24,17.35.44,25.24-2.51,12.14-4.51,17.32-14.46,20.17-27.94,6.53-41.52,17.75-82.61,34.7-122.44C290.17,17.49,916.37-52.66,1208.57,289.16c18.54,21.43,35,44.83,50.65,68.51,3.45,4.55,6.28,8.54,11.13,11.15,13.02,6.31,25.96-11.61,43.09-11.85,20.91-1.16,61.77,17.45,69.97,36.77,7.16,15.78,4.43,35.3,4.72,53.32-.08,12.24,1.26,22.68,2.25,34.56,2.15,17.14-.76,42.27,3.77,57.86,3.75,12.43,7.31-1.88,7.48-10.75-3.62-166.78-7.34-333.9-12.57-500.63-1.02-8.66-3.51-15.76-8.37-20.37l-.1-.1ZM362.06,153.52c-10.92,5.7-22.38,11.17-34.9,12.22-11.9.81-28.95.6-38.86-3.38-6.85-2.76-7.21-6.74-2.89-12.47,4.08-5.82,9.66-11.16,13.51-16.92,12.24-18.58,32.35-26.98,54.88-40.23,8.38-4.58,38.46-21.31,42.05-8.08.84,5.25-5.57,11.58-9.64,15.42-2.64,2.72-5.81,4.75-7.12,7.44-.67,3.41,11-.63,16.43-2.17,9.47-2.72,20.55-6.88,29.43-6.11,9.92,1.96-.81,12.83-5.13,16.83-16.36,14.45-39.03,27.26-57.57,37.37l-.18.09ZM1287.01,292.06c.69,7.6-1.36,16.18-1.85,23.96-1.1,9.58.54,18.02-4.03,23.32-4.87,3.9-11.06.44-16.45-1.54-4.85-2.16-10.27-4.67-14.67-7.64-6.09-3.96-9.82-10.43-11.42-17.43-2.3-10.2-1.42-21.36-4.73-31.73-1.95-6.43-4.67-12.58-8.14-18.35-4.01-6.64-9.05-12.98-14.18-18.78-3.57-4.06-8.3-8.1-12.3-10.23-4.29-2.18-7.01-3.23-9.24-2-2.19,1.67-2.32,6.11-3.42,8.74-1.48,5.59-8.83,2.26-12.65.27-5.16-2.72-10.09-7.05-13.56-11.73-6.67-8.27-14.23-33.81-10.97-43.2,3.41-7.88,20.22,5.06,26.2,7.74,9.33,5.3,20.86,5.34,27.35,13.05,4.54,5.82,6.22,13.13,10.5,20.27,10.23,15.8,23.6,29.85,38.8,40.96,5.17,3.87,11.07,7.01,16.94,9.4,7.04,3.07,17.14,6.62,17.8,14.79l.02.12Z"/>
        <path class="cls-10" d="M18.24,727.12c-8.33.35,1.4,15.04,6.14,14.6,1.94-.25,2.45-2.36,2.46-4.17.14-4.64-3.64-10.29-8.45-10.43h-.16Z"/>
        <path class="cls-8" d="M1268.01,364.43c-99.11-167.58-286.18-269.98-477.32-289.08C456.61,39.46,134.45,231.08,74.37,573.58c-2.21,19.16,9.38,22.51,26.11,20.65,12.35-1.55,26.47-3.38,38-6.91,14.2-4.28,21.82-14.81,25.92-29.03,2.13-6.9,4.34-14.43,8.29-20.44,8.51-12,7.34,6.61,6.28,12.39-3.33,19.39-.6,25.99,20.18,16.36,29.69-14.92,58.73-36.84,79.89-62.58,8.85-11.17,15.93-24.05,23.05-36.62,164.67-290.5,641.68-297.86,812.15-8.81,7.52,12.07,14.38,29.11,29.05,30.88,10.34,1.41,23.05-2.99,33.39-6.24,19.43-6.31,39.93-14.69,54.79-27.95,14.52-12.56,26.53-28.13,35.59-45.13,7.8-14.46,8.87-30.62,1.04-45.56l-.08-.17ZM218.45,452.81c-8.2,5.79-10.3.49-7.95-7.22,1.65-6.21,6.67-15.06,10.78-22.06,4.03-6.9,7.91-14.04,12.56-20.51,15.21-20.74,19.51-6.91,12.25,9.37-5.97,13.43-15.96,31.86-27.5,40.33l-.14.1ZM338.16,296.01c-4.02,11.02-16.73,24.09-25.77,33.22-3.95,4-8.84,8.2-12.87,10.54-5.1,3.32-13.72,5.71-11.5-2.73,1.74-5.96,5.92-11.74,11.82-18.48,6.96-7.47,13.99-15.07,21.55-21.91,7.87-7.25,21.3-13.97,16.83-.79l-.06.16ZM456.34,215.32c-3.6,9.31-20.35,17.36-29.74,23.17-8.37,4.83-18.5,9.99-27.52,10.86-14.35.67-2.35-11.68,6.66-17.18,4.82-3.16,10-6,15.05-8.83,3.68-2.05,7.39-4.04,11.2-5.81,6.53-3.18,25.18-9.99,24.37-2.3l-.02.09ZM583.95,170.39c-10.83,8.81-38.38,17.06-52.81,17.5-10.32.22-12.71-4.28-4.14-10.14,5.37-3.92,15.74-7.92,24.23-10.52,7.11-2.21,14.3-4.56,21.62-5.83,11.21-2.17,21.5.35,11.24,8.88l-.14.12ZM725.06,155.59c-4.74,1.75-13.01,3.13-21.51,3.58-10.59.51-23.5.93-33.52-.78-11.99-2.05-11.53-6.22-.53-8.67,11.54-2.61,28.32-2.63,41.14-2.51,9.02-.04,27.88,2.99,14.57,8.33l-.15.06ZM866.43,177.45c-7.96,4.02-26.55-.71-36.77-3.29-8.73-2.16-18.8-4.99-25.07-10.36-8.43-8.01,7.25-8.98,12.54-8.35,7.99.53,16.03,2.69,24.22,4.74,3.16.82,6.4,1.73,9.45,2.78,7.45,2.47,22.64,9.77,15.72,14.42l-.1.05ZM1000.08,231.82c-7.92,7.38-36.76-8.9-45.82-14.67-6.11-3.55-23.98-17.85-14.82-21.05,10.4-1.31,23.82,7.55,33.47,12.4,7.31,4.01,29.95,15.31,27.21,23.25l-.04.07ZM1106.85,319.2c-8.07-.45-21-12.4-28.12-18.86-6.55-6.04-26.08-22.22-22.27-29.81,8.65-6.17,35.31,20.16,42.13,26.76,4.29,4.44,7.99,8.66,10.57,14.05,2.31,4.98,1.4,7.98-2.21,7.86h-.1ZM1195.88,428.21c-11.8,1.99-32.42-29.08-38.21-39.11-2.49-4.44-9.52-18.89-1.99-19.27,7.05,1.15,13.98,9.07,19.9,16.36,5.17,7.18,28.82,36.05,20.39,41.99l-.08.03Z"/>
        <path class="cls-8" d="M1273.01,381.51c-.52-.86-4.21-7.37-4.29-7.56,1.21,2.1,3.18,5.55,4.3,7.56h0Z"/>
        <path class="cls-10" d="M1265.05,306.22c.47.54-.62,2.78-.8,1.41-.03-.63.45-1.65.72-1.47l.08.06Z"/>
        <path class="cls-3" d="M1264.95,306.48c-.07.59-.48.61-.76.06-.29-.5-.16-1.27.17-1.39.53-.06.6.68.6,1.1l-.02.22Z"/>
        <path class="cls-10" d="M1254.84,282.46c-.5.86-4.72-1.95-4.96-2.76-.13-.37.44-.47,1.28-.25,1.32.38,3.16,1.53,3.68,2.92v.09Z"/>
        <path class="cls-3" d="M1254.34,312.42c.67.14-.88,2.01-1.15,1.38-.14-.61.45-1.31,1.02-1.39h.13Z"/>
        <path class="cls-10" d="M1245.38,290.44c1.23-.29,2.14,4.54,1.27,5.09-.76.24-2.77-3.84-1.37-5.04l.1-.05Z"/>
        <path class="cls-8" d="M1263.25,364.26c-4.54-6.96-12.43-19.18-17.09-26.48,2.49,3.93,13.91,21.64,17.09,26.48h0Z"/>
        <path class="cls-8" d="M1246.02,337.83c-.36-.52-1.54-2.18-1.85-2.58.33.49,1.83,2.59,1.85,2.59h0Z"/>
        <path class="cls-2" d="M1197.68,425.76c-2.31,8.14-15.98-4.28-20.79-9.91-2.61-2.95-5.05-6.07-7.41-9.25-6.33-8.35-16.03-22.52-16.91-31.11-.83-5.45,2.36-7.18,7.41-4.26,7.73,4.38,14.54,13.19,20.17,20.9,6.33,9.11,18.17,23.5,17.55,33.53l-.02.1Z"/>
        <path class="cls-10" d="M1182.22,216.58c3.22,12.23-8.01,5.16-10.47-3.14-1.21-3.03-.28-9.93,4.25-7.74,3.03,1.86,5.17,7.05,6.16,10.63l.07.25Z"/>
        <path class="cls-8" d="M1129.26,490.03c-25.77-52.26-64.04-99.36-106.15-137.11-5.86-5.31-6.25-5.61-.22-.02,38.58,35.01,71.98,76.27,98.36,123.64,2.37,3.99,6.49,11.52,8.01,13.48h0Z"/>
        <path class="cls-10" d="M1147.14,653.2c-6.43-7.93-16.66-11.41-26.48-15.78-15.24-7.19-33.3-16.4-41.83-31.28-5.27-9.97-7.07-21.94-14.81-30.33-6.26-7.2-15.74-12.43-21.8-20.21-10.31-12.93-9.33-32.76,2.04-44.68,5.65-6.16,13.31-9.98,21.36-12.16,15.42-4.54,37.11-2.8,51.15-7.04,9.58-2.97,7.85-11.07,4.16-18.53-2.86-6.04-7.58-13.57-12.17-21.14-4.1-6.72-8.33-13.48-12.61-20.04-178.73-261.33-636.55-242.9-793.39,32.16-3.26,5.69-8.71,15.6-9.44,18.83-.26.9-.35,1.56-.24,1.96.55,1.28,2.42-.38,3.34-.89,5.46-4.06,12.92-10.63,21.98-14.55,15.23-6.89,34.38-2.2,43.83,11.8,8.62,11.98,7.67,28.01.65,40.72-.92,1.77-1.94,3.5-3.01,5.19-4.57,8.35-19.05,21.12-16.09,27.91,1.31,2.18,3.32,3.01,5.98,3.93,5.07,1.62,10.77,2.61,16.23,4.37,7.9,2.41,14.85,7.03,19.99,13.4,7.15,8.82,13.1,18.5,22.12,25.54,9.13,7.57,21.01,13.61,25.88,25.27,8.67,18.9-2.62,39.85-19.21,50.09-17.15,10.93-37.81,9.93-57.87,12.28-25.77,3.47-51.19,9.45-76.79,13.99-6.38,1.24-13.13,2.64-18.87,5.31-7.08,3.17-14.82,9.95-10.02,16.97,5.69,7.68,21,7.95,30.85,7.63,275.45-6.22,550.86-12.15,826.3-18.44,7.82-.37,14.75-1.55,20.4-4.45,11.08-5.11,16.75-18.3,19.56-30.31,2.55-10.19,4.79-19.11-1.12-27.38l-.08-.11ZM638.74,493.61c-2.37,32.06-41.3,47.32-64.72,25.22-23.64-22.42-10.23-62.39,22.09-66.14,23.43-2.97,44.52,17.2,42.64,40.72v.2Z"/>
        <path class="cls-2" d="M1094.84,293.58c5.98,5.75,12.13,12.1,14.87,19.05.93,2.66,1.41,5.35-1.25,6.36-8.01,1.58-22.54-12.21-29.53-18.46-5.24-4.72-10.67-9.43-15.33-14.67-8.92-9.64-11.9-20.02,1.02-15.14,10.93,4.76,20.78,14.28,30.04,22.68l.18.17Z"/>
        <path class="cls-2" d="M1000.23,229.38c.84,2.94-2.15,4.14-4.59,4.21-5.98.76-19.33-4.03-27.13-8.32-10.03-4.97-25.68-14.39-30.41-22.75-5.41-9.96,9.03-6.46,14.82-3.96,4.65,1.81,9.79,4.45,14.77,7.14,9.99,5.8,28.43,13.58,32.51,23.58l.03.1Z"/>
        <path class="cls-2" d="M866.99,171.88c2.47,2.74,1.07,5.15-2,6.03-4.23,1.73-15.77.88-23.48-1.02-11.4-2.65-30.99-6.5-38.01-14.24-.99-1.13-1.82-2.61-1.17-4.04,4.38-6.13,22.25-2.54,29.61-.86,11.26,2.7,27.79,6.38,34.97,14.02l.08.1Z"/>
        <path class="cls-2" d="M729.15,150.81c2.49,2.45-2.31,4.19-4.2,4.93-5.42,2.12-17.17,3.63-25.77,3.84-5.38.21-10.84.29-16.22.15-8.53.15-31.41-3.1-17.46-8.7,8-2.75,18.7-3.27,27.9-3.56,9.97-.19,29.26-1.18,35.68,3.29l.06.05Z"/>
        <path class="cls-8" d="M718.46,68.94c-182.95,1.44-366.79,69.03-494.6,201.86-4.39,4.51-7.07,7.28-7.81,8.04.6-.72,3.49-3.57,7.8-8.06,127.72-132.92,311.59-200.53,494.62-201.85h0Z"/>
        <path class="cls-2" d="M586.96,161.85c6.06,4.85-10.29,13.56-17.15,16.27-3.64,1.49-7.47,2.81-11.26,4-10.44,3.11-20.86,6.14-30.54,5.42-13.74-1.55-1.53-10.64,5.41-13.67,5.05-2.48,11.44-4.74,17.32-6.58,10.23-2.96,27.33-9.43,36.13-5.49l.08.05Z"/>
        <path class="cls-2" d="M456.27,213.45c1.43,7.49-18.4,18.27-25.65,22.64-5.81,3.39-11.93,6.9-17.9,9.36-4.68,1.93-19.67,7.29-20.26.66.38-5.5,11.18-12.98,17.73-16.81,11.51-6.67,29-17.16,41.15-17.65,1.78-.02,4.03.09,4.9,1.73l.03.07Z"/>
        <path class="cls-10" d="M405.02,113.39c.91,1.68-18.35,11.81-19.47,10.31.1-1.47,15.06-11.32,19.44-10.35l.03.04Z"/>
        <path class="cls-8" d="M286.75,498.32c2.74-4.37,7.7-13.78,10.92-19.46,23-41.96,51.46-78.62,84.29-111.32,5.66-5.74,4.05-4.19-.82.65-37.34,36.66-71.99,82.36-94.41,130.15l.02-.02Z"/>
        <path class="cls-10" d="M357.68,137.83c0-.39,1.06-1.07,2.74-1.82,2.42-1.09,5.94-2.25,8.63-2.78.89-.17,5.2-1.03,3.92.42-1.28,1.28-8.19,3.79-12.29,4.39-.94.06-2.48.53-3-.16v-.05Z"/>
        <path class="cls-10" d="M356.91,138.54c.2-.14.88-.48.65-.35-.1.06-.75.42-.63.35h-.02Z"/>
        <path class="cls-10" d="M341.26,145.5c.07.05-2.43.91-2.39.79.62-.38,1.72-.67,2.35-.79h.03Z"/>
        <path class="cls-2" d="M336.27,288.3c4.41-.1,2.82,6.44.5,10.84-2.81,5.69-6.7,10.9-10.88,15.77-7.14,7.97-15.8,17.58-23.71,23.16-4.88,3.78-17.58,9.41-13.68-2.35,2.82-7.67,9.6-15.43,15.81-21.92,8.09-8.05,21.84-24.68,31.87-25.51h.1Z"/>
        <path class="cls-8" d="M248.71,710.36c.3,6.38.79,17.09,1.21,23.78-.04-3.1-1-21.27-1.21-23.79h0Z"/>
        <path class="cls-2" d="M242.92,393.64c8.87-4.46,7.22,8.06,4.51,15.43-2,5.66-4.68,10.92-7.61,16.25-4.6,8.22-9.81,16.82-16.54,23.48-5.99,6.27-16.48,11.62-13.01-2.38,1.46-6.19,6.55-15.33,10.79-22.54,7.31-11.91,11.87-22.91,21.75-30.18l.1-.06Z"/>
        <path class="cls-8" d="M112.67,733.93c-2.33-1.37-17.37-1.99-17.4,2.01.14,1.96,6.7,4.1,10.59,3.48,2.17.09,11.2-2.77,6.95-5.42l-.14-.07Z"/>
        <path class="cls-8" d="M176.26,727.67c-33.17,12.26,1.27,10,16.26,9.73,7.23-.17,14.46-.34,21.69-.5,13.32-.65,25.54.85,35.27-6.92,6.1-5.05,5.7-12.96-1.93-16.35-3.66-1.74-8.44-2.13-13.88-1.51-6.77.76-14.73,2.96-21.99,4.77-11.9,3.05-23.69,6.53-35.2,10.7l-.21.08Z"/>
        <path class="cls-8" d="M212.52,287.91c1.32-1.53,3.57-4.06,4.97-5.61-.12.16-4.97,5.65-4.97,5.61h0Z"/>
        <path class="cls-8" d="M205.12,296.63c-.05.07,6.63-7.75,7.36-8.64-2.1,2.49-5.36,6.3-7.36,8.64h0Z"/>
        <path class="cls-8" d="M197.89,305.49c1.93-2.41,5.09-6.32,7.16-8.84-.76.99-7.15,8.85-7.16,8.84h0Z"/>
        <path class="cls-8" d="M188.56,317.6c1.05-1.34,8.19-10.56,9.33-12.05-2.61,3.39-6.85,8.86-9.33,12.05h0Z"/>
        <path class="cls-8" d="M188.6,317.56s-2.1,2.94-2.27,3.1c.63-.89,1.63-2.26,2.27-3.1h0Z"/>
        <path class="cls-2" d="M170.36,580.64c10.87-6.44,21.75-43.41,17.82-55.9-2.36-7.24-8.4-1.57-10.93,2.32-4.87,6.7-9.1,19.11-11.58,28.53-2.18,7.07-3.59,19.87-.98,23.68,1.23,2.28,3.2,2.78,5.56,1.44l.11-.06Z"/>
      </g>
      <g>
        <path class="cls-14" d="M75.65,592.16c21.46-126.28,64.94-233.52,155.29-326.46,21.47-23.21,46.2-42.93,71.23-62.09,40.24-31.4,85.5-55.87,131.71-77.14,58.09-25.54,119.34-39.34,182.24-48.73,20.02-2.83,40.25-5.07,60.43-6.25,64.61-2.79,130.3,0,192.82,17.61,28.66,7.71,57.21,15.26,84.86,26.15,22.81,8.79,45.93,16.79,67.9,27.69,110.99,54.11,188.62,131.94,250.51,238.06"/>
        <path class="cls-14" d="M106.52,737.45c-1.63.04-3.25.07-4.88.11"/>
        <path class="cls-14" d="M249.13,714.77c-.6,20.91-15.09,19.83-32.65,20.21-15.28.35-30.56.69-45.83,1.03"/>
        <path class="cls-14" d="M1125.93,488.79c-29.06-58.44-68.47-108.7-120.76-148.02-19.97-15.86-41.14-29.89-63.94-41.48-18.81-10.04-38.83-17.08-58.96-24.15-152.5-59.61-335.02-33.2-466.77,63.81-52.44,39.32-93.54,91.48-123.12,149.65"/>
      </g>
    </g>
  </g>
  <g>
    <g id="Camada_2-3" data-name="Camada 2">
      <g>
        <path class="cls-10" d="M73.97,1413.53v-642h1267v642H73.97ZM188.37,775.53c-.6-.9-1.3-1.6-2-1.9-11.7-5.6-40,6.6-50.6,11.4-16.6,7.6-31.9,18.7-43.2,33.1-5.2,6.6-11,13.4-12.6,22.3-.2,1.2-1.7,2-2.2,3.2-1.1,2.5-2.6,5.1-2.7,7.6-.3,14.8-.1,29.7-.1,44.5,0,7.1.6,13.7,3.4,20.7,14.1,35.4,22,72.7,37.3,107.8,36.7,84.3,92,152.8,156.3,217.4,2,2,4.1,3.8,6.8,1.1,3.6-3.7,7.3-7.3,10.6-11.3,10-12.2,19.7-24.5,29.6-36.7,2-2.5,4.3-4.6,6.3-7.1,9.1-11.4,17.8-23,27.2-34.2,11.8-14.2-30.1-44.7-38.2-54.1-10.5-12.3-19.4-25.9-29.6-38.5-11.8-14.7-21.2-30.8-30.1-47.2-9-16.7-16.8-34-24.9-51.1-2.3-4.9-4.5-9.9-6.2-15.1-5.9-18.4-12.3-36.8-17.2-55.5-5-18.9-9.2-39.5-11.9-59.4-1.5-11.4.3-47.6-6-57ZM486.67,1233.23c-1-.8-2.1-1.9-3.4-2.6-10.9-5.9-22.1-11.2-32.6-17.8-17.2-10.8-34-22.2-50.8-33.6-4.9-3.3-6.5-3.8-10.6.7-5.6,6.1-11,12.4-16.2,18.8-7.2,8.8-14.2,17.9-21.4,26.7-4.3,5.3-8.7,10.5-13,15.7-7.3,9-14.4,18.2-21.9,27-4.2,5-4.9,6,.2,10,9.7,7.7,19.7,14.9,29.9,21.9,10.6,7.4,21.1,15,32.3,21.3,17.1,9.6,34.8,18.1,52.3,27,5,2.5,6.3,1.9,8.5-3.3,8-19.4,16-38.7,24.1-58,6.6-15.6,13.5-31.2,20.2-46.8.9-1.8,1.5-4.1,2.4-7ZM622.67,1406.03c.9-4.8,1.9-8.5,2.3-12.3.9-9.5,1.5-19.1,2.2-28.7.1-.8.4-1.6.5-2.4,1.1-8.7,2.3-17.3,3.3-26,.9-8.7,1.4-17.5,2.4-26.2.6-5.7,1.9-11.4,2.6-17.1.6-5.2.9-10.4,1.3-15.1-10.9-2.4-20.7-5.1-30.6-6.5-18.7-2.7-36.7-8.3-54.7-13.7-4.7-1.4-7.8.2-9.6,4.6-3.6,8.5-7.1,17.1-10.7,25.6-6.2,14.6-12.4,29.1-18.6,43.7-5.2,12.1-10.1,24.3-15.5,36.4-2.8,6.2-2.9,6.6,3.2,9,.8.3,1.6.5,2.4.8,17.1,5,34.3,10.2,51.5,15.1,8.6,2.4,17.3,4.6,26,6.3,9.9,1.9,19.9,3,29.8,4.5,3.8.4,7.6,1.2,12.2,2ZM791.67,1279.43c-1-.7-2.4-1.2-4.3-1.8-10.9-3.2-31.4,2.9-42.9,3.9-6.5.6-18.1-.7-23.9,2.2-7,3.4-5.5,6.2-6.4,15.6-1,9.4-9.9,112-11.6,112,12.8,0,24.4.5,36-.1,13.2-.7,26.3-2.5,39.4-3.7,7.6-.7,15.2-1.3,22.7-2.2,4.7-.6,9.3-1.7,15.2-2.9-4.8-29.8-10.1-59.5-15.9-89.2-1.4-7.2-2.8-14.4-4.2-21.6-1.4-7-1-10.1-4.1-12.2ZM912.47,1378.53c2.3-.6,3.4-.8,4.5-1.2,8.2-3,16.5-5.8,24.6-9.1,17.5-7.2,35-14.7,52.4-22.1,3.6-1.5,4.5-3.9,2.7-7.5-17.8-34.9-35.5-69.9-53.3-104.8-1.8-3.5-4.3-4.4-8.2-2.7-14.5,6.3-29.2,12.2-43.7,18.6-1.9.9-4.4,4-4.1,5.7,1.5,11.3,3.7,22.4,5.7,33.6,2.6,14.6,5.3,29.2,8,43.8,2.6,13.9,5.2,27.9,8.1,41.8.4,1.5,2.4,2.8,3.3,3.9ZM1066.27,1142.53c-1.9.9-3.7,1.4-4.8,2.4-7.4,6.9-14.8,13.9-21.8,21.2-1,1.1-1,4.3-.2,5.9,11.5,22.8,23.2,45.6,34.8,68.3,6.7,13.2,13.5,26.4,20.1,39.7,1.3,2.6,2.6,3.9,5.2,1.7,16.9-14.1,34-28.1,50.7-42.5,6.2-5.3,5.8-5.9.1-11.8-15.5-16-30.8-32.2-46.3-48.2-11.3-11.6-22.8-22.9-34.3-34.3-1.1-.9-2.4-1.6-3.5-2.4ZM1270.37,1088.83c-1.3-1.3-2.4-3-3.9-3.9-11.6-6.6-23.3-13-34.9-19.6-12.6-7.2-25.1-14.5-37.7-21.7-8.9-5.1-18-9.8-26.7-15.1-5.6-3.4-8.4-3.3-11.8,2.3-1.2,1.9-2.4,4.1-2.9,6.3-.4,1.7-.2,4.1.8,5.3,5.4,6.5,10.9,13,16.8,19,9.6,10,19.6,19.5,29.2,29.4,13.1,13.5,25.9,27.2,38.9,40.8,2.1,2.2,3.9,2,5.6-.6,7.6-11.6,15.4-23.1,23.1-34.8,1.2-2.1,2.1-4.4,3.5-7.4ZM1225.87,890.93c-.3.7-.6,1.3-.8,2,10.7,6.1,21.5,12.2,32.2,18.4,22.7,13,45.4,25.9,68.2,38.8,1.7,1,3.9,1.2,6.2,1.8,2.9-10.4,5.6-20.1,8.1-29.8.8-3,.9-5.1-3.4-6-22.2-4.7-44.2-9.8-66.3-14.8-14.8-3.4-29.5-6.9-44.2-10.4Z"/>
        <path class="cls-5" d="M351.07,1139.53c6.2,6.4,5.9,7,.1,13.9-9.3,11.2-18.1,22.8-27.2,34.2-2,2.5-4.3,4.6-6.3,7.1-9.9,12.2-19.6,24.5-29.6,36.7-3.3,4-6.9,7.6-10.5,11.3-2.7,2.7-4.8.9-6.8-1.1-8.9-9-18-17.8-26.8-26.9-11.3-11.7-22.8-23.3-33.4-35.7-8.6-10-16.3-20.9-24.1-31.6-9.7-13.4-19.5-26.8-28.3-40.7-24.5-39-44.8-80.6-60.4-124-12.4-34.5-25.8-72.5-24-109.7,2.3-47.4,32.2-78.6,76-92.1,9.1-2.8,27.3-11.5,36.2-4.6,1.1.8,2,1.9,2.6,3.3,1.5,3.3,1.6,7,1.7,10.6.8,30.1,5.2,59.8,12,89.1,23.3,101.2,77.3,185.6,148.8,260.2Z"/>
        <path class="cls-1" d="M486.67,1233.23c-1,2.9-1.5,5.2-2.4,7.3-6.7,15.6-13.6,31.1-20.2,46.8-8.2,19.3-16.1,38.7-24.1,58-2.2,5.3-3.6,5.8-8.5,3.3-17.5-8.9-35.2-17.5-52.3-27-11.2-6.3-21.7-13.9-32.3-21.3-10.1-7.1-20.2-14.2-29.9-21.9-5.1-4-4.4-5-.2-10,7.5-8.8,14.6-18,21.9-27,4.3-5.3,8.7-10.4,13-15.7,7.2-8.9,14.2-17.9,21.4-26.7,5.3-6.4,10.6-12.7,16.2-18.8,4.1-4.5,5.7-4,10.6-.7,16.8,11.4,33.6,22.8,50.8,33.6,10.5,6.5,21.7,11.8,32.6,17.8,1.3.5,2.4,1.6,3.4,2.3Z"/>
        <path class="cls-12" d="M622.67,1406.03c-4.5-.8-8.3-1.6-12.2-2.2-9.9-1.5-20-2.6-29.8-4.5-8.8-1.7-17.4-3.9-26-6.3-17.2-4.9-34.3-10-51.5-15.1-.8-.2-1.6-.5-2.4-.8-6.1-2.4-6-2.8-3.2-9,5.4-12,10.3-24.3,15.5-36.4,6.2-14.6,12.4-29.1,18.6-43.7,3.6-8.5,7.1-17,10.7-25.6,1.8-4.3,4.9-6,9.6-4.6,18,5.4,36,11,54.7,13.7,9.9,1.4,19.7,4.2,30.6,6.5-.4,4.7-.7,10-1.3,15.1-.7,5.7-2,11.4-2.6,17.1-1,8.7-1.4,17.5-2.4,26.2-.9,8.7-2.2,17.3-3.3,26-.1.8-.5,1.6-.5,2.4-.7,9.6-1.3,19.1-2.2,28.7-.4,4-1.4,7.7-2.3,12.5Z"/>
        <path class="cls-9" d="M792.07,1279.33c6.2,5,5.5,17.2,7.1,25.9,2.9,16,5.8,31.9,8.7,47.9,2.1,11.4,4.1,22.9,6.2,34.3,2.7,14.6,2.4,15.7-12.8,17.6-7.5.9-15.1,1.5-22.7,2.2-13.1,1.3-26.3,3-39.4,3.7-11.6.6-23.2.1-36,.1.6-6.4,1-12.4,1.7-18.4.8-6.6,1.9-13.1,2.7-19.6.9-7.9,1.4-15.8,2.1-23.7,1.3-14.3,2.6-28.6,4.1-42.9.5-4.5-.2-15.8,2.4-19.4,3.8-5.4,10.3-4.4,17.5-5.1,16.4-1.6,32.9-3.2,49.3-4.8,4.1-.4,7,.5,9.1,2.2Z"/>
        <path class="cls-11" d="M902.47,1378.53c-.9-1.1-2.9-2.4-3.2-4-2.9-13.9-5.5-27.8-8.1-41.8-2.7-14.6-5.3-29.2-8-43.8-1.7-9.3-9.5-30-3.7-38.1,6-8.3,32.3-14.3,41.9-18.4,2.5-1.1,5.1-2.2,7.8-1.9,10.1,1.2,24.2,42.2,28.7,51.2,9.6,18.9,19.2,37.9,28.9,56.8,1.9,3.7.9,6-2.7,7.5-17.5,7.4-34.9,14.9-52.4,22.1-8.1,3.3-16.4,6.1-24.6,9.1-1.1.5-2.3.7-4.6,1.3Z"/>
        <path class="cls-4" d="M1057.27,1142.53c1.1.8,2.4,1.5,3.5,2.5,11.5,11.4,23,22.7,34.3,34.3,15.5,16,30.9,32.2,46.3,48.2,5.7,5.9,6.1,6.5-.1,11.8-16.7,14.4-33.7,28.4-50.7,42.5-2.6,2.2-3.9.8-5.2-1.7-6.6-13.3-13.4-26.5-20.1-39.7-11.6-22.8-23.4-45.5-34.8-68.3-.8-1.6-.8-4.8.2-5.9,7.1-7.3,14.4-14.3,21.8-21.2,1.1-1.1,2.9-1.6,4.8-2.5Z"/>
        <path class="cls-6" d="M1270.37,1088.83c-1.4,3-2.3,5.3-3.6,7.3-7.6,11.6-15.4,23.2-23.1,34.8-1.7,2.6-3.5,2.8-5.6.6-13-13.6-25.8-27.3-38.9-40.8-9.6-9.9-19.6-19.5-29.2-29.4-5.9-6.1-11.4-12.5-16.8-19-1-1.2-1.1-3.6-.8-5.3.5-2.2,1.7-4.3,2.9-6.3,3.4-5.5,6.1-5.7,11.8-2.3,8.7,5.3,17.8,10,26.7,15.1,12.6,7.2,25.1,14.6,37.7,21.7,11.6,6.6,23.3,13,34.9,19.6,1.6,1,2.7,2.7,4,4Z"/>
        <path class="cls-7" d="M1225.87,890.93c14.8,3.5,29.5,7,44.3,10.4,22.1,5.1,44.1,10.1,66.3,14.8,4.3.9,4.2,3,3.4,6-2.6,9.7-5.3,19.4-8.1,29.8-2.3-.6-4.4-.8-6.2-1.8-22.8-12.9-45.5-25.9-68.2-38.8-10.7-6.1-21.5-12.2-32.2-18.4.1-.7.4-1.3.7-2Z"/>
      </g>
    </g>
    <g id="Camada_1-2" data-name="Camada 1">
      <path class="cls-13" d="M56.97,721.03c6.6-38.9,35.1-75.4,67.8-96.6,32.1-21.7,69.5-33.6,106.7-43.3,33.4-6.6,66.9-12.5,100.7-16.4,173.2-13.4,347.3,2,520.1,15.6,123.8,8.9,251,22.6,372.7-9.6,8.9-2.4,18.2-5.3,26.4-9.4,7.2-3.5,12.5-8.7,17.6-14.7,6.6-7.6,13.1-15.6,18.2-24.5,6.3-9.6,14.4-37.1,25.6-16.3,23.6,50.3,36.8,114.4,13.3,167.1-15.6,33.2-47.6,54.3-80.9,67.4-77.1,29.1-160.8,36.4-237.1,67.3-48.3,17.8-94,45.8-125.9,86.8-20.3,24.5-35.8,53.1-43.9,83.9-17.4,66.1-25.8,134.8-42.5,201.1-3.4,14.3-5.8,29.4-14.3,41.7-20.2,29-60,33.8-92.6,30.2-25.5-2.3-50.9-16.5-61.6-40.5-3.6-8-5-16.7-7-25.2-1.2-5.2-2.5-10.4-3.6-15.6-8.7-44.6-17.7-89.1-26.3-133.7-8.8-39.8-15.8-81.6-39.1-116-22.5-33-53.1-59.5-86.3-81.3-59.6-38.9-128.8-61.1-198.7-72.3-22.7-3.4-45.5-3.2-68.4-2.7-14.4.3-28.9,1.3-42.8,5.1-29,7.7-58.2,23.2-72.4,50.7-3.4,5.7-8.4,21.1-15.5,19.5-1.3-.4-2.5-1.5-3.5-3.1-1.5-2.2-2.3-4.8-3.2-7.6-2.4-8.6-3.4-17.5-4.4-26.4-3.1-26.8-2.6-54.2,1.1-81l-.2-.2ZM613.57,743.93c-.7,47.4,39.4,90,86.5,93.6,28.1,2.3,56.3-9.3,75.3-29.5,54.5-57.1,17.3-149-57.6-158.1-53.6-6.8-105,39.7-104.2,93.8v.2Z"/>
    </g>
  </g>
</svg>